<?xml version="1.0" encoding="iso-8859-1"?>
<!-- Generator: Adobe Illustrator 19.0.0, SVG Export Plug-In . SVG Version: 6.00 Build 0)  -->
<svg xmlns="http://www.w3.org/2000/svg" xmlns:xlink="http://www.w3.org/1999/xlink" version="1.1" id="Layer_1" x="0px" y="0px" viewBox="0 0 511.999 511.999" style="enable-background:new 0 0 511.999 511.999;" xml:space="preserve" width="512px" height="512px">
<g>
	<g>
		<path d="M437.029,75.03C336.99-25.006,175.081-25.014,75.036,75.03c-100.037,100.037-100.044,261.947,0,361.993    c82.633,82.633,205.308,95.647,300.285,45.532c3.663-1.933,5.066-6.47,3.133-10.132c-1.932-3.662-6.468-5.069-10.132-3.133    C208.235,553.758,15.064,436.86,15.064,256.026c0-132.87,108.098-240.968,240.969-240.968C388.903,15.058,497,123.156,497,256.026    c0,80.616-40.058,155.545-107.155,200.433c-3.443,2.303-4.367,6.961-2.064,10.402c2.303,3.443,6.962,4.368,10.402,2.063    C532.357,379.165,551.214,189.217,437.029,75.03z" fill="#0e1f31"/>
	</g>
</g>
<g>
	<g>
		<path d="M377.289,73.663c-3.446-2.298-8.104-1.364-10.398,2.083c-2.297,3.447-1.364,8.104,2.083,10.398    c57.002,37.977,91.033,101.483,91.033,169.882c0,112.473-91.503,203.976-203.974,203.976    c-112.473,0-203.975-91.503-203.975-203.976c0-151.383,160.286-250.477,295.643-182.269c3.696,1.865,8.207,0.377,10.071-3.322    c1.865-3.699,0.378-8.208-3.322-10.071C208.947-12.962,37.057,93.468,37.057,256.026c0,121.028,97.938,218.974,218.974,218.974    c121.028,0,218.974-97.938,218.974-218.974C475.005,182.599,438.475,114.427,377.289,73.663z" fill="#0e1f31"/>
	</g>
</g>
<g>
	<g>
		<path d="M405.676,137.245c-11.013-8.863-27.187-7.116-36.053,3.899l-34.896,43.357l-34.32-43.226    c-10.197-12.841-29.736-12.96-40.058-0.132l-34.934,43.403l-10.707-13.317c-2.595-3.227-7.315-3.742-10.544-1.145    c-3.228,2.595-3.741,7.315-1.146,10.543l16.549,20.584c3.002,3.734,8.69,3.728,11.687,0.003l40.779-50.667    c4.259-5.292,12.369-5.308,16.627,0.056l40.153,50.573c2.671,3.361,6.874,2.836,5.874,2.836c2.271,0,4.419-1.028,5.843-2.798    l40.778-50.667c5.926-7.363,17.857-3.865,18.873,5.529c0.306,2.827-0.508,5.604-2.29,7.817    c-58.923,73.21-55.165,68.794-56.721,70.037l0.041-0.035c-4.27,3.073-8.887,2.87-12.372,0.615    c-2.099-1.342,1.385,2.674-42.737-52.898c-3.024-3.807-8.733-3.746-11.716-0.039c-41.883,52.039-40.746,51.998-44.939,53.8    l0.031-0.016c-4.296,1.642-7.549,0.827-10.809-1.481c-1.699-1.386,0.137,0.609-41.843-52.265    c-2.989-3.765-8.704-3.781-11.715-0.039l-40.779,50.667c-3.679,4.573-10.393,5.301-14.964,1.619    c-4.572-3.68-5.298-10.394-1.618-14.966l55.01-68.347c4.261-5.297,12.368-5.307,16.627,0.055l7.935,9.995    c2.575,3.244,7.293,3.786,10.536,1.211c3.244-2.576,3.786-7.294,1.21-10.537l-7.936-9.995    c-10.225-12.878-29.757-12.934-40.058-0.132l-55.009,68.348c-8.865,11.014-7.117,27.187,3.898,36.055    c11.016,8.863,27.188,7.115,36.054-3.9l34.897-43.358c36.74,46.272,36.826,48.171,45.645,51.368    c10.036,3.655,21.632,0.77,28.734-8.009l34.898-43.358c36.85,46.412,35.6,45.324,39.025,47.783    c12.209,8.818,27.286,5.581,35.352-4.425l55.011-68.347C418.463,162.257,416.718,146.132,405.676,137.245z" fill="#0e1f31"/>
	</g>
</g>
<g>
	<g>
		<path d="M415.094,274.717c-2.444-22.558-31.127-31.14-45.471-13.321l-34.896,43.359l-34.32-43.227    c-10.201-12.847-29.739-12.954-40.058-0.132l-34.897,43.359l-34.321-43.227c-10.195-12.84-29.731-12.961-40.058-0.132    l-55.01,68.349c-8.884,11.038-7.146,27.167,3.898,36.053c10.957,8.821,27.109,7.216,36.054-3.897l34.898-43.359    c37.646,47.414,35.554,45.318,39.591,48.186c7.925,5.754,20.108,6.937,30.031-0.285c4.027-2.841,4.172-3.816,39.653-47.901    c36.625,46.127,35.847,46.614,43.014,50.242c10.204,5.237,23.486,2.798,31.364-6.883l55.01-68.348    C413.871,288.217,415.831,281.529,415.094,274.717z M397.891,284.147c-58.958,73.254-55.186,68.808-56.712,70.031l0.039-0.033    c-3.789,2.72-7.732,2.886-11.054,1.351c-3.435-1.74,0.142,2.047-44.062-53.629c-2.997-3.773-8.711-3.773-11.716-0.039    c-43.436,53.969-41.817,53.331-47.024,54.43c-3.453,0.66-6.145-0.322-8.708-2.138c-1.273-0.991,1.353,2.133-41.828-52.255    c-1.417-1.784-3.569-2.828-5.849-2.836c-2.3-0.021-4.439,1.021-5.868,2.798l-40.779,50.669    c-3.681,4.574-10.371,5.314-14.964,1.617c-4.582-3.688-5.307-10.382-1.618-14.965l55.009-68.349    c4.259-5.291,12.367-5.311,16.627,0.054l40.154,50.575c3.003,3.782,8.72,3.762,11.716,0.039l40.779-50.669    c4.259-5.291,12.368-5.308,16.627,0.055l40.153,50.575c3.022,3.804,8.731,3.748,11.716,0.039l40.777-50.668    c5.968-7.412,17.863-3.815,18.874,5.53C400.487,279.157,399.674,281.934,397.891,284.147z" fill="#0e1f31"/>
	</g>
</g>
<g>
</g>
<g>
</g>
<g>
</g>
<g>
</g>
<g>
</g>
<g>
</g>
<g>
</g>
<g>
</g>
<g>
</g>
<g>
</g>
<g>
</g>
<g>
</g>
<g>
</g>
<g>
</g>
<g>
</g>
</svg>
