<svg xmlns="http://www.w3.org/2000/svg" id="Layer_1" viewBox="0 0 185 41.8"><style id="style2">.st6{fill:#0080c4}</style><path d="M92.73 15.398v-4.799c0-4.188-3.49-7.678-7.852-7.678h-10.47c-4.362 0-7.852 3.49-7.852 7.678v4.799c0 4.188 3.49 7.59 7.852 7.59h10.47c4.363 0 7.853-3.402 7.853-7.59zm-5.06-.611c0 2.094-1.57 3.839-3.751 3.839h-8.464c-2.18 0-3.926-1.745-3.926-3.839V11.21c0-2.269 1.483-3.926 3.926-3.926h8.55c2.444 0 3.753 1.657 3.753 3.926zM29.04 2.921H18.57c-4.363 0-7.853 3.49-7.853 7.678v4.799c0 4.188 3.578 7.59 7.853 7.59h10.47c4.362 0 7.852-3.402 7.852-7.59v-4.799c0-4.188-3.577-7.678-7.852-7.678zm2.792 11.866c0 2.094-1.745 3.839-3.927 3.839h-8.201c-2.181 0-3.926-1.745-3.926-3.839V11.21c0-2.269 1.483-3.926 3.926-3.926h8.201c2.443 0 3.927 1.657 3.927 3.926zm85.504-3.839v12.04h5.06V10.686c0-4.275-3.49-7.765-7.765-7.765h-9.859c-4.275 0-7.678 3.49-7.678 7.765v12.302h5.235v-12.04c0-2.268 1.134-3.664 3.49-3.664h7.678c2.443 0 3.84 1.396 3.84 3.664zM63.502 5.626c0-1.483-1.134-2.618-2.705-2.705H40.294v.087l.785 4.276h14.135l-13.96 10.818a2.894 2.894 0 0 0-1.135 2.269c0 1.483 1.047 2.617 2.88 2.617h20.329l-.786-5.147H48.408l13.96-9.947c.785-.523 1.134-1.396 1.134-2.268zM14.206 29.968c-1.92 0-3.49 1.484-3.49 3.49 0 2.007 1.57 3.49 3.49 3.49 1.92 0 3.49-1.483 3.49-3.49 0-2.006-1.483-3.49-3.49-3.49z" id="path4" fill="#0083ca" stroke-width=".872"/><path d="M56.086 29.968c-1.92 0-3.49 1.484-3.49 3.49 0 2.007 1.57 3.49 3.49 3.49 1.92 0 3.49-1.483 3.49-3.49 0-2.006-1.57-3.49-3.49-3.49z" id="path6" fill="#aa4d9d" stroke-width=".872"/><path d="M45.616 29.968c-1.92 0-3.49 1.484-3.49 3.49 0 2.007 1.57 3.49 3.49 3.49 1.92 0 3.49-1.483 3.49-3.49 0-2.006-1.57-3.49-3.49-3.49z" id="path8" fill="#ef473d" stroke-width=".872"/><path d="M35.146 29.968c-1.92 0-3.49 1.484-3.49 3.49 0 2.007 1.57 3.49 3.49 3.49 1.92 0 3.49-1.483 3.49-3.49.087-2.006-1.483-3.49-3.49-3.49z" id="path10" fill="#f9a01b" stroke-width=".872"/><path d="M24.676 29.968c-1.92 0-3.49 1.484-3.49 3.49 0 2.007 1.57 3.49 3.49 3.49 1.92 0 3.49-1.483 3.49-3.49.087-2.006-1.483-3.49-3.49-3.49z" id="path12" fill="#85bf41" stroke-width=".872"/><path d="M166.893 2.921v11.691c0 2.269-1.309 4.014-3.665 4.014h-6.543c-2.356 0-3.927-1.658-3.927-4.014V2.922h-4.973V15.31c0 4.276 3.49 7.678 7.765 7.678h8.725c4.275 0 7.765-3.402 7.765-7.678V2.921zm-26.088 4.363h1.745l.785-4.363h-3.577c-4.188 0-7.59 3.577-7.59 7.852v12.215h5.06v-12.04c0-2.268 1.221-3.664 3.577-3.664zm-12.477 15.268h-.872c-.785 0-1.396.61-1.396 1.396v.873c0 .785.61 1.396 1.396 1.396h.872c.786 0 1.396-.611 1.396-1.396v-.873c0-.698-.61-1.396-1.396-1.396z" id="path14" fill="#26b7eb" stroke-width=".872"/><path d="M79.207 31.626h-1.396v-1.745c0-.61-.349-.96-1.047-.96h-1.483v1.396h.698c.174 0 .262.088.262.262v5.06c0 .611.261.873.872.873h2.094c1.658 0 2.705-.96 2.705-2.443s-1.047-2.443-2.705-2.443zm1.134 2.443c0 .785-.523 1.222-1.308 1.222h-.96a.188.188 0 0 1-.175-.175v-2.268h1.222c.698 0 1.221.436 1.221 1.221zm4.188.785v-5.933h-1.57v6.544c0 .698.349 1.047 1.047 1.047h1.483v-1.396h-.698c-.174 0-.262-.087-.262-.262zm6.544-5.235c-1.047 0-1.832.35-2.443 1.222.087-1.047.61-1.832 1.658-2.269l1.745-.698c.96-.436 1.57-.698 1.57-1.657v-.698h-1.57v.436c0 .262-.088.436-.786.698l-1.57.698c-2.094.96-2.53 2.53-2.53 4.799 0 2.966 1.309 4.624 3.577 4.624 2.181 0 3.664-1.396 3.664-3.577-.087-2.182-1.308-3.578-3.315-3.578zm-.349 5.672c-1.221 0-2.007-.873-2.007-2.182 0-1.221.873-2.094 2.007-2.094.96 0 1.92.698 1.92 2.182.087 1.221-.699 2.094-1.92 2.094zm12.738-.437v-5.933h-1.483l-3.228 4.45c-.175.175-.35.524-.524.785v-4.188c0-.698-.349-.96-1.047-.96h-1.396v1.397h.698c.175 0 .262.087.262.261V36.6h1.483l3.229-4.45c.174-.174.349-.523.523-.785v4.188c0 .698.35 1.047 1.047 1.047h1.396v-1.396h-.698c-.174-.087-.262-.174-.262-.349zm6.98-6.02c-1.396 0-2.094.698-2.355 1.134v-.087c0-.523-.35-.785-.96-.785h-1.396v1.396h.698c.174 0 .262.087.262.262v8.812h1.57v-3.84c.262.35.96 1.048 2.181 1.048 2.007 0 3.403-1.658 3.403-3.926-.087-2.443-1.396-4.014-3.403-4.014zm-.261 1.396c1.221 0 2.006 1.047 2.006 2.53 0 1.484-.872 2.53-2.006 2.53-1.31 0-2.007-1.308-2.007-2.53 0-1.92 1.047-2.53 2.007-2.53zm11.517 4.624v-3.14c0-2.007-.96-2.967-3.141-2.967-.96 0-2.618.262-2.618 1.483v.785h1.483v-.523c0-.35.698-.524 1.135-.524 1.134 0 1.57.437 1.57 1.658h-.262c-2.966 0-4.537.873-4.537 2.618 0 1.483 1.31 2.268 2.53 2.268.96 0 1.571-.436 1.92-.698.175-.174.349-.349.436-.523v.087c0 .61.35.96.96.96h1.396v-1.396h-.698c-.087.174-.174.087-.174-.088zm-3.49.524c-.873 0-1.31-.61-1.31-1.134 0-.873.96-1.31 2.88-1.31h.262v.175c.087 1.135-.698 2.269-1.832 2.269zm13.174-.524v-5.933H129.9l-3.228 4.45c-.175.175-.35.524-.524.785v-4.188c0-.698-.349-.96-1.047-.96h-1.396v1.397h.698c.175 0 .262.087.262.261V36.6h1.483l3.228-4.45c.175-.174.35-.523.524-.785v4.188c0 .698.349 1.047 1.047 1.047h1.396v-1.396h-.698c-.175-.087-.262-.174-.262-.349zm8.463-5.845h-5.322c-.698 0-1.047.261-1.047.96v1.22h1.309v-.61c0-.174.087-.262.262-.262h1.308v6.108h1.57v-6.108h1.31c.174 0 .261.088.261.262v.61h1.31v-1.22c.086-.699-.263-.96-.96-.96zm6.195-.175c-2.181 0-3.752 1.658-3.752 3.926 0 2.269 1.658 3.927 4.014 3.927 1.047 0 2.181-.437 2.88-1.047l.086-.088-.698-1.221-.087.087c-.61.524-1.396.873-2.094.873-1.134 0-2.356-.698-2.443-2.356h5.322v-.087c0-.175.088-.35.088-.524-.088-2.094-1.31-3.49-3.316-3.49zm0 1.222c.96 0 1.658.698 1.658 1.832h-3.752c.262-1.134 1.047-1.832 2.094-1.832zm-73.464 2.53c.61-.35.873-.873.873-1.57 0-1.222-.96-2.007-2.53-2.007H66.73l.262 1.396h.785v5.235c0 .61.262.872.873.872h2.356c1.745 0 2.792-.872 2.792-2.181.087-.873-.437-1.57-1.222-1.745zm-3.14-2.443h1.22c.524 0 1.222.174 1.222.96 0 .61-.436.96-1.221.96h-1.31v-1.92zm1.395 5.148H69.61a.188.188 0 0 1-.175-.175v-1.92h1.396c.873 0 1.396.35 1.396 1.048 0 .698-.436 1.047-1.396 1.047z" class="st6" id="path16" fill="#0080c4" stroke-width=".872"/></svg>