<svg width="203" height="34" viewBox="0 0 203 34" xmlns="http://www.w3.org/2000/svg"><title>Logo</title><style>@media all and (max-width:60px){.logo-h{display:none}}</style><g id="logo" fill="none" fill-rule="evenodd"><g id="01_Main-1366px" transform="translate(-42 -67)"><g id="New-Vertical-menu-Copy"><g id="Head" transform="translate(0 45)"><g id="logo_kh" transform="translate(41 21)"><path id="Fill-2" class="logo-l" fill="#FFCA05" d="M10.99 4.099h12.787v19.947h-7.094l-5.693 5.71v-5.71H3.894V4.1z"/><g id="Group-31" transform="translate(.744 .8)"><path d="M3.15 23.246V3.295h19.883v19.947h-7.097l-5.69 5.703v-5.699H3.15zM.31.446v25.646h7.095v6.293c.002.364.138.728.416 1.006a1.414 1.414 0 0 0 2.007 0l.001.002 7.278-7.301h8.766V.446H.31z" id="Fill-3" fill="#000"/><path class="logo-h" d="M104.323 18.35c.281-.566.724-1.814.724-4.842 0-3.51-.524-4.884-.844-5.448-.685-1.21-1.852-1.412-2.452-1.412-1.57 0-2.296 1.13-2.577 1.653-.604 1.17-.724 3.755-.724 5.087 0 .603 0 3.75.803 5.124.603 1.008 1.65 1.37 2.498 1.37 1.448 0 2.212-.845 2.572-1.531m-11.304-5.083c0-7.59 4.306-10.656 8.732-10.656 4.423 0 8.727 3.067 8.727 10.656 0 7.585-4.304 10.65-8.727 10.65-4.426 0-8.732-3.065-8.732-10.65" id="Fill-5" fill="#000"/><path class="logo-h" d="M140.524 13.267a2.727 2.727 0 0 0-2.722-2.73 2.727 2.727 0 0 0-2.72 2.73 2.728 2.728 0 0 0 2.72 2.731 2.728 2.728 0 0 0 2.722-2.73" id="Fill-7" fill="#000"/><path class="logo-h" id="Fill-9" fill="#000" d="M89.711 7.051V3.3h-9.859v3.752h2.133v3.955h-5.832V3.3H68.43v3.752h2.616v12.43H68.43v3.753h9.856v-3.752h-2.133v-4.44h5.832l.002 8.192h7.724v-3.752h-2.616V7.052z"/><path class="logo-h" d="M160.101 19.481l-4.386-6.296 4.386-6.134h1.931V3.299h-5.053l-2.671 3.872c-.241.364-1.003 1.494-1.566 2.505-.93-1.495-1.007-1.657-1.57-2.505l-2.664-3.872h-5.06V7.05h1.932l4.386 6.134-4.386 6.296h-2.093v3.757l5.193-.004 4.262-6.538 4.258 6.54 5.194.002V19.48h-2.093z" id="Fill-11" fill="#000"/><path class="logo-h" d="M175.357 18.631c-.924.888-1.806 1.534-3.012 1.534-1.574 0-2.655-1.127-2.655-2.743 0-1.292.64-2.06 1.447-2.542 1.208-.686 2.816-.686 3.981-.686h.24v4.437zm5.23.85l-.041-.164c-.198-.804-.358-1.169-.358-3.228V9.107c0-2.538-.727-6.494-6.476-6.494-3.601 0-7.71 1.453-7.71 1.453l1.288 3.918s3.023-1.336 5.536-1.336c2.576 0 2.531 1.898 2.531 2.986v1.248h-.562c-6.033 0-9.93 1.74-9.93 6.821 0 4.44 3.05 6.215 6.03 6.215 2.173 0 3.579-.765 5.184-2.423 0 .084.042.164.042.246.164.846.443 1.493 1.169 1.493l5.59.004v-3.757h-2.294z" id="Fill-13" fill="#000"/><path class="logo-h" d="M126.797 3.299l-2.309 10.209c-.603 2.621-.889 4.357-1.33 6.981h-.076c-.285-1.493-1.129-5.49-1.531-6.981L118.813 3.29h-6.194v3.76h1.85l5.57 16.183h2.235l-.402 1.331c-.44 1.41-1.008 2.985-3.219 2.985-.642 0-1.445-.203-2.132-.485l-1.453-.659-1.766 3.825 1.224.565c1.19.574 3.087.99 4.453.99 1.526 0 3.176-.443 4.26-1.41 1.21-1.05 1.932-2.826 2.536-4.803.162-.565.962-3.27 1.124-3.873l3.943-14.65h1.975V3.3h-6.02z" id="Fill-15" fill="#000"/><path class="logo-h" d="M197.106 3.299L194.8 13.508c-.607 2.621-.892 4.357-1.333 6.981h-.076c-.282-1.493-1.13-5.49-1.53-6.981l-2.74-10.217h-6.192v3.76h1.848l5.574 16.183h2.235l-.402 1.331c-.444 1.41-1.008 2.985-3.223 2.985-.64 0-1.444-.203-2.13-.485l-1.453-.659-1.766 3.825 1.224.565c1.189.574 3.087.99 4.452.99 1.527 0 3.176-.443 4.26-1.41 1.21-1.05 1.931-2.826 2.539-4.803.158-.565.962-3.27 1.122-3.873l3.942-14.65h1.978V3.3h-6.024z" id="Fill-17" fill="#000"/><path d="M13.099 16.566c-1.079 0-1.95.856-1.95 1.95 0 1.138.96 1.938 1.95 1.938.96 0 1.933-.79 1.933-1.939a1.93 1.93 0 0 0-1.933-1.95" id="Fill-19" fill="#000"/><path d="M16.48 7.147c-.813-.75-1.897-1.057-2.995-1.057-1.601 0-3.06.602-4.008 1.095l.85 2.313c.559-.197 1.066-.463 2.155-.648.795-.134 2.018.07 2.018 1.192 0 .797-.631 1.057-1.353 1.306-.138.047-1.137.368-1.523.507v3.043h2.815v-1.412c.637-.198 1.292-.506 1.77-.863a3.414 3.414 0 0 0 1.408-2.783c0-.975-.331-1.948-1.138-2.693" id="Fill-21" fill="#000"/><path id="Fill-23" class="logo-r" fill="#BED630" d="M47.17 3.299H34.384v19.947h7.096l5.69 5.71v-5.71h7.096V3.3z"/><path d="M44.34 20.455c-.992 0-1.943-.801-1.943-1.941 0-1.091.865-1.95 1.943-1.95a1.93 1.93 0 0 1 1.932 1.95c0 1.15-.972 1.94-1.932 1.94" id="Fill-25" fill="#000"/><path id="Fill-27" fill="#000" d="M46.12 6.09l-.525 8.717h-2.557l-.516-8.717z"/><path d="M47.17 23.246v5.699l-5.69-5.703h-7.096V3.295h19.882v19.951H47.17zM31.544.446v25.646h8.766l7.277 7.301.002-.002a1.413 1.413 0 0 0 2.007 0 1.42 1.42 0 0 0 .415-1.006v-6.293h7.097V.446H31.544z" id="Fill-29" fill="#000"/></g></g></g></g></g></g></svg>