<svg xmlns="http://www.w3.org/2000/svg" width="160" height="34" viewBox="0 0 160 60" id="svg29"><title id="title2">Logo</title><style id="style6">@media all and (max-width:60px){.logo-h{display:none}}</style><path d="M86.356 23.54v-6.822c0-5.953-4.96-10.914-11.162-10.914H60.31c-6.2 0-11.162 4.961-11.162 10.914v6.822c0 5.953 4.961 10.79 11.162 10.79h14.884c6.201 0 11.162-4.837 11.162-10.79zm-7.193-.868c0 2.976-2.233 5.457-5.333 5.457H61.799c-3.1 0-5.581-2.48-5.581-5.457v-5.085c0-3.225 2.108-5.582 5.58-5.582h12.156c3.472 0 5.333 2.357 5.333 5.582zM-4.184 5.804h-14.884c-6.201 0-11.162 4.961-11.162 10.914v6.822c0 5.953 5.085 10.79 11.162 10.79h14.884c6.201 0 11.162-4.837 11.162-10.79v-6.822c0-5.953-5.085-10.914-11.162-10.914zm3.969 16.868c0 2.976-2.48 5.457-5.582 5.457h-11.658c-3.101 0-5.582-2.48-5.582-5.457v-5.085c0-3.225 2.109-5.582 5.582-5.582h11.658c3.473 0 5.582 2.357 5.582 5.582zm121.547-5.458V34.33h7.194V16.842c0-6.077-4.961-11.038-11.038-11.038h-14.016c-6.077 0-10.914 4.961-10.914 11.038V34.33H100V17.214c0-3.224 1.612-5.209 4.96-5.209h10.915c3.473 0 5.457 1.985 5.457 5.21zM44.807 9.65c0-2.109-1.612-3.721-3.845-3.845H11.815v.124l1.117 6.077h20.092L13.18 27.385a4.114 4.114 0 0 0-1.613 3.225c0 2.108 1.489 3.72 4.093 3.72h28.9l-1.116-7.317H23.35l19.845-14.14c1.116-.744 1.612-1.984 1.612-3.224zM-25.27 44.253c-2.729 0-4.961 2.108-4.961 4.96 0 2.853 2.232 4.962 4.96 4.962 2.73 0 4.962-2.109 4.962-4.961 0-2.853-2.108-4.961-4.961-4.961z" id="path4" fill="#0083ca" stroke-width="1.24"/><path d="M34.265 44.253c-2.73 0-4.962 2.108-4.962 4.96 0 2.853 2.233 4.962 4.962 4.962 2.728 0 4.96-2.109 4.96-4.961 0-2.853-2.232-4.961-4.96-4.961z" id="path6" fill="#aa4d9d" stroke-width="1.24"/><path d="M19.381 44.253c-2.728 0-4.961 2.108-4.961 4.96 0 2.853 2.233 4.962 4.961 4.962 2.729 0 4.961-2.109 4.961-4.961 0-2.853-2.232-4.961-4.96-4.961z" id="path8" fill="#ef473d" stroke-width="1.24"/><path d="M4.498 44.253c-2.729 0-4.961 2.108-4.961 4.96 0 2.853 2.232 4.962 4.96 4.962 2.73 0 4.962-2.109 4.962-4.961.124-2.853-2.109-4.961-4.961-4.961z" id="path10" fill="#f9a01b" stroke-width="1.24"/><path d="M-10.386 44.253c-2.728 0-4.96 2.108-4.96 4.96 0 2.853 2.232 4.962 4.96 4.962 2.729 0 4.961-2.109 4.961-4.961.124-2.853-2.108-4.961-4.96-4.961z" id="path12" fill="#85bf41" stroke-width="1.24"/><path d="M191.78 5.804v16.62c0 3.224-1.86 5.705-5.209 5.705h-9.302c-3.349 0-5.581-2.357-5.581-5.705V5.804h-7.07v17.612c0 6.077 4.961 10.914 11.039 10.914h12.403c6.077 0 11.038-4.837 11.038-10.914V5.804zm-37.084 6.201h2.48l1.117-6.201h-5.085c-5.954 0-10.79 5.085-10.79 11.162V34.33h7.193V17.214c0-3.224 1.736-5.209 5.085-5.209zM136.96 33.71h-1.24a1.96 1.96 0 0 0-1.985 1.985v1.24a1.96 1.96 0 0 0 1.985 1.984h1.24a1.96 1.96 0 0 0 1.984-1.984v-1.24c0-.993-.868-1.985-1.984-1.985z" id="path14" fill="#26b7eb" stroke-width="1.24"/><path d="M67.132 46.61h-1.984v-2.481c0-.869-.497-1.365-1.489-1.365h-2.108v1.985h.992c.248 0 .372.124.372.372v7.193c0 .869.372 1.24 1.24 1.24h2.977c2.357 0 3.845-1.364 3.845-3.472 0-2.109-1.488-3.473-3.845-3.473zm1.612 3.472c0 1.116-.744 1.736-1.86 1.736H65.52a.267.267 0 0 1-.248-.248v-3.224h1.736c.992 0 1.736.62 1.736 1.736zm5.954 1.116v-8.434h-2.233v9.302c0 .993.496 1.489 1.489 1.489h2.108V51.57h-.992c-.248 0-.372-.124-.372-.372zM84 43.757c-1.488 0-2.605.496-3.473 1.736.124-1.488.868-2.605 2.357-3.225l2.48-.992c1.365-.62 2.233-.992 2.233-2.357v-.992h-2.233v.62c0 .372-.124.62-1.116.993l-2.233.992c-2.976 1.364-3.596 3.597-3.596 6.821 0 4.217 1.86 6.574 5.085 6.574 3.1 0 5.209-1.985 5.209-5.085-.124-3.101-1.86-5.085-4.713-5.085zm-.496 8.061c-1.737 0-2.853-1.24-2.853-3.1 0-1.737 1.24-2.977 2.853-2.977 1.364 0 2.728.992 2.728 3.1.124 1.737-.992 2.977-2.728 2.977zm18.108-.62v-8.434h-2.109l-4.589 6.326c-.248.248-.496.744-.744 1.116v-5.953c0-.993-.496-1.365-1.488-1.365h-1.985v1.985h.993c.248 0 .372.124.372.372v8.434h2.108l4.59-6.326c.247-.248.495-.744.743-1.116v5.953c0 .993.497 1.489 1.489 1.489h1.984v-1.985h-.992c-.248-.124-.372-.248-.372-.496zm9.922-8.558c-1.984 0-2.976.993-3.349 1.613v-.124c0-.745-.496-1.117-1.364-1.117h-1.984v1.985h.992c.248 0 .372.124.372.372v12.527h2.232v-5.457c.373.496 1.365 1.488 3.101 1.488 2.853 0 4.837-2.357 4.837-5.581-.124-3.473-1.984-5.706-4.837-5.706zm-.372 1.985c1.737 0 2.853 1.488 2.853 3.597 0 2.108-1.24 3.596-2.853 3.596-1.86 0-2.853-1.86-2.853-3.596 0-2.73 1.489-3.597 2.853-3.597zm16.372 6.573v-4.465c0-2.852-1.364-4.217-4.465-4.217-1.364 0-3.721.372-3.721 2.109v1.116h2.108v-.744c0-.496.993-.744 1.613-.744 1.612 0 2.232.62 2.232 2.356h-.372c-4.217 0-6.45 1.24-6.45 3.721 0 2.109 1.861 3.225 3.598 3.225 1.364 0 2.232-.62 2.728-.992.248-.249.496-.497.62-.745v.124c0 .869.496 1.365 1.365 1.365h1.984v-1.985h-.992c-.124.248-.248.124-.248-.124zm-4.961.744c-1.24 0-1.86-.868-1.86-1.612 0-1.24 1.364-1.86 4.092-1.86h.372v.248c.124 1.612-.992 3.224-2.604 3.224zm18.728-.744v-8.434h-2.109l-4.589 6.326c-.248.248-.496.744-.744 1.116v-5.953c0-.993-.496-1.365-1.488-1.365h-1.984v1.985h.992c.248 0 .372.124.372.372v8.434h2.108l4.59-6.326c.247-.248.495-.744.743-1.116v5.953c0 .993.497 1.489 1.489 1.489h1.984v-1.985h-.992c-.248-.124-.372-.248-.372-.496zm12.03-8.31h-7.565c-.992 0-1.488.372-1.488 1.365v1.736h1.86v-.868c0-.248.124-.372.372-.372h1.86v8.682h2.233v-8.682h1.86c.249 0 .373.124.373.372v.868h1.86v-1.736c.124-.993-.372-1.365-1.364-1.365zm8.807-.248c-3.101 0-5.333 2.357-5.333 5.582 0 3.224 2.356 5.58 5.705 5.58 1.488 0 3.1-.62 4.093-1.488l.124-.124-.992-1.736-.124.124c-.869.744-1.985 1.24-2.977 1.24-1.613 0-3.349-.992-3.473-3.348h7.566v-.124c0-.248.124-.497.124-.745-.124-2.976-1.86-4.96-4.713-4.96zm0 1.737c1.364 0 2.356.992 2.356 2.604h-5.333c.372-1.612 1.488-2.604 2.977-2.604zM57.706 47.973c.868-.496 1.24-1.24 1.24-2.232 0-1.736-1.364-2.853-3.597-2.853h-5.953l.372 1.985h1.116v7.441c0 .869.372 1.24 1.24 1.24h3.35c2.48 0 3.968-1.24 3.968-3.1.124-1.24-.62-2.232-1.736-2.48zm-4.465-3.472h1.736c.744 0 1.737.248 1.737 1.364 0 .868-.62 1.364-1.737 1.364h-1.86v-2.728zm1.984 7.317H53.49a.267.267 0 0 1-.248-.248v-2.728h1.984c1.24 0 1.985.496 1.985 1.488s-.62 1.488-1.985 1.488z" class="st6" id="path16" stroke-width="1.24"/></svg>