<svg xmlns="http://www.w3.org/2000/svg" viewBox="0 0 35.47 57"><defs><style>.a{fill:#1e3e56}.b{fill:#fff}</style></defs><title>sale-ballon</title><path class="a" d="M17.5 0A17.63 17.63 0 0 0 0 17.73V18a17.72 17.72 0 0 0 10.59 16c1.95 1.8 4.86 6.77 5.66 20.52.41.88 1.25 2.48 1.25 2.48s.84-1.6 1.25-2.53c.75-13 3.39-18.15 5.33-20.19A17.73 17.73 0 0 0 17.5 0zm0 30.22A12.5 12.5 0 1 1 30 17.72a12.5 12.5 0 0 1-12.5 12.5z"/><path class="b" d="M11.36 14.73a3.32 3.32 0 0 1 .58-2 2 2 0 0 1 1.68-.8 2.17 2.17 0 0 1 1.67.72 3 3 0 0 1 .71 2.16 3 3 0 0 1-.67 2.1 2.16 2.16 0 0 1-1.66.73 2.08 2.08 0 0 1-1.67-.72 3.24 3.24 0 0 1-.64-2.19zm2.3-1.85a1 1 0 0 0-.82.42 2.65 2.65 0 0 0-.33 1.56 2.4 2.4 0 0 0 .33 1.45 1 1 0 0 0 1.64 0 2.63 2.63 0 0 0 .33-1.55 2.41 2.41 0 0 0-.33-1.46 1 1 0 0 0-.82-.42zm0 10.4L19.54 12h1.07l-5.86 11.28zm4.65-2.91a3.23 3.23 0 0 1 .58-2 1.92 1.92 0 0 1 1.68-.8 2.17 2.17 0 0 1 1.67.72 3 3 0 0 1 .67 2.12 3 3 0 0 1-.67 2.1 2.16 2.16 0 0 1-1.66.73 2.09 2.09 0 0 1-1.58-.69 3.19 3.19 0 0 1-.69-2.18zm2.3-1.86a1 1 0 0 0-.83.43 2.66 2.66 0 0 0-.32 1.56 2.42 2.42 0 0 0 .33 1.5 1 1 0 0 0 1.64 0 2.63 2.63 0 0 0 .33-1.55 2.41 2.41 0 0 0-.33-1.46 1 1 0 0 0-.82-.48z"/></svg>