<svg xmlns="http://www.w3.org/2000/svg" xmlns:xlink="http://www.w3.org/1999/xlink" width="140" height="10" viewBox="0 0 140 10"><defs><path id="a" d="M581 447v-1.54h56.92l8.76-8.46.06.06.03-.03 8.06 7.79 8.09-7.82.06.06.03-.03 8.05 7.79 8.1-7.82.06.06.02-.03.01.01.04-.04.07.06.02-.03 8.06 7.79 8.09-7.82.06.06.03-.03 8.06 7.79 8.09-7.82.06.06.03-.03 9.14 8.83-1.14 1.1-8.06-7.78-8.09 7.82-.06-.06-.03.03-8.05-7.79-8.1 7.82-.06-.06-.03.03-.07-.07-.07.07-7.98-7.72-8.02 7.75-.07-.07-.07.07-.06-.06-.03.03-8.06-7.79-8.09 7.82-.06-.06-.03.03-8.05-7.79-8.1 7.82-.35-.34v.34z"/><path id="b" d="M581 447v-1.54h56.92l8.76-8.46.06.06.03-.03 8.06 7.79 8.09-7.82.06.06.03-.03 8.05 7.79 8.1-7.82.06.06.02-.03.01.01.04-.04.07.06.02-.03 8.06 7.79 8.09-7.82.06.06.03-.03 8.06 7.79 8.09-7.82.06.06.03-.03 9.14 8.83-1.14 1.1-8.06-7.78-8.09 7.82-.06-.06-.03.03-8.05-7.79-8.1 7.82-.06-.06-.03.03-.07-.07-.07.07-7.98-7.72-8.02 7.75-.07-.07-.07.07-.06-.06-.03.03-8.06-7.79-8.09 7.82-.06-.06-.03.03-8.05-7.79-8.1 7.82-.35-.34v.34z"/><clipPath id="c"><use fill="#fff" xlink:href="#a"/></clipPath></defs><g transform="translate(-581 -437)" fill="#fff"><use xlink:href="#b"/><use fill-opacity="0" stroke="#fff" stroke-miterlimit="50" stroke-width=".14" clip-path="url(&quot;#c&quot;)" xlink:href="#b"/></g></svg>